<?xml version="1.0" encoding="UTF-8" standalone="no"?>
<!-- Creator: CorelDRAW -->

<svg
   xmlns:dc="http://purl.org/dc/elements/1.1/"
   xmlns:cc="http://creativecommons.org/ns#"
   xmlns:rdf="http://www.w3.org/1999/02/22-rdf-syntax-ns#"
   xmlns:svg="http://www.w3.org/2000/svg"
   xmlns="http://www.w3.org/2000/svg"
   xmlns:sodipodi="http://sodipodi.sourceforge.net/DTD/sodipodi-0.dtd"
   xmlns:inkscape="http://www.inkscape.org/namespaces/inkscape"
   xml:space="preserve"
   width="220mm"
   height="194mm"
   style="shape-rendering:geometricPrecision; text-rendering:geometricPrecision; image-rendering:optimizeQuality; fill-rule:evenodd"
   viewBox="0 0 220000 194010"
   id="svg2"
   sodipodi:version="0.32"
   inkscape:version="0.92.0 r"
   sodipodi:docname="Brazil_Blank_Map-simplificado.svg"
   inkscape:output_extension="org.inkscape.output.svg.inkscape"
   version="1.1"><metadata
     id="metadata113"><rdf:RDF><cc:Work
         rdf:about=""><dc:format>image/svg+xml</dc:format><dc:type
           rdf:resource="http://purl.org/dc/dcmitype/StillImage" /><dc:title /></cc:Work></rdf:RDF></metadata><sodipodi:namedview
     inkscape:window-height="1028"
     inkscape:window-width="1680"
     inkscape:pageshadow="2"
     inkscape:pageopacity="0.0"
     guidetolerance="10.0"
     gridtolerance="10.0"
     objecttolerance="10.0"
     borderopacity="1.0"
     bordercolor="#666666"
     pagecolor="#ffffff"
     id="base"
     inkscape:zoom="3.1919513"
     inkscape:cx="151.81112"
     inkscape:cy="590.12925"
     inkscape:window-x="1920"
     inkscape:window-y="0"
     inkscape:current-layer="svg2"
     showgrid="false"
     inkscape:window-maximized="0" /><defs
     id="defs4"><style
       type="text/css"
       id="style6">
   
    .str0 {stroke:#1F1A17;stroke-width:76}
    .str2 {stroke:#1F1A17;stroke-width:281}
    .str1 {stroke:#72706F;stroke-width:352}
    .str3 {stroke:#1F1A17;stroke-width:704}
    .fil3 {fill:none}
    .fil0 {fill:#BFD8FF}
    .fil1 {fill:#F4E2BA}
    .fil2 {fill:#FFF3E3}
    .fil4 {fill:#00FF00}
    .fil5 {fill:#FF9900}
    .fil6 {fill:#Ff0000}
    .fil7 {fill:#00FFFF}
    .fil8 {fill:#FFFF00}
   
  </style></defs><g
     id="Destaque"
     style="fill:#999999;fill-opacity:1" /><path
     style="fill:none;stroke:#070707;stroke-width:282.23678589;stroke-miterlimit:4;stroke-dasharray:none;stroke-opacity:1;fill-opacity:1"
     d="m 39760,75303 c 584.888,-461.803 2028.442,-1242.308 2058,-1898 741.547,-102.444 2309.344,-125.283 2797,740 352.292,-750.701 1160.013,-726.317 1640,-579 -534.711,-951.182 1583.065,-1239.799 1190,-128 1173.205,97.331 975.157,-1441.604 1608,-2123 680.264,343.997 2066.603,-433.22 2443,-64 1293.522,346.146 575.173,-1524.22 1479,-1608 790.049,-338.563 -360.653,-1668.239 901,-1704 804.133,-92.659 606.34,-2452.151 2347,-1607 1822.416,-603.67 2948.599,405.793 3504,1447 158.648,784.468 1197.754,105.285 1222,1254 -145.741,865.63 885.855,-156.265 836,996 476.453,740.045 1408.927,867.448 1640,65 791.886,-674.13 2032.709,846.514 1190,1865 467.108,739.165 -915.868,781.824 -32,1318 -80.237,569.085 761.201,1257.988 32,1608 517.55,1118.226 -721.992,2486.973 418,3376 -90.168,1236.74 -6.854,1815.732 -386,2765 1818.952,273.406 4885.87,-505.699 5691,579 428.569,-131.944 1976.104,-81.979 1769,482 801.002,1381.652 -1395.533,1849.496 -579,2958 -42.94,388.674 786.403,675.94 707,1254 284.342,892.182 1148.638,1813.456 64,2122 -1056.482,802.952 -646.789,2375.361 -1639,2990 -215.796,1184.695 -860.015,2013.503 -1930,2573 -203.402,662.534 -1629.895,-769.359 -1607,-708 -590.218,279.696 -1128.88,-74.601 -2347,225 -877.829,-441.987 -1615.94,521.143 -2155,-836 -653.518,-286.337 -803.584,-1720.185 -1511,-1061 -577.229,-209.702 -1177.168,-405.819 -1736,-868 -589.706,588.943 -1109.277,-741.163 -1704,-804 -427.875,-1284.575 -625.809,-576.106 -1640,-707 -490.871,-722.442 -2094.836,-1567.72 -2830,-675 -994.853,-399.096 -1280.444,174.46 -2540,-772 277.766,-628.162 -1338.333,-1502.251 -1125,-1029 -455.617,-339.552 -202.57,-312.151 -675,-707 -1208.927,487.481 -281.095,-1532.922 -1447,-1383 -624.23,371.523 346.181,-1237.932 -579,-1157 -138.824,-1177.76 -243.038,-1610.888 193,-2573 -385.43,-1133.48 -1212.648,-2283.77 -97,-3665 -202.268,-869.413 73.483,-3192.381 -996,-2347 -198.738,981.977 -1139.001,164.938 -1029,128 -455.798,116.817 -521.229,-8.042 -1190,65 -365.369,193.529 -1092.708,112.712 -1672,321 -703.213,282.174 -964.794,447.605 -2283,-128 z"
     id="RO"
     inkscape:connector-curvature="0"
     inkscape:label=""><title
       id="title4860">Rondônia</title></path><path
     style="fill:none;stroke:#070707;stroke-width:282.23678589;stroke-miterlimit:4;stroke-dasharray:none;stroke-opacity:1;fill-opacity:1"
     d="m 6610,62120 c 6363.746,4036.064 14480.644,3158.655 20675,7459 4134.25,2500.837 9593.298,4073.927 13311,6334 -1136.025,405.862 -1394.633,1332.83 -2251,1705 -634.726,366.405 -1247.447,118.831 -1478,707 -1115.046,227.921 -1256.848,1967.363 -2123,1029 -1329.309,-426.126 -1435.044,2029.02 -2765,1961 -816.873,757.751 -1578.592,275.553 -1575,-225 -718.14,252.357 -2442.939,-469.024 -3441,-257 -913.529,148.045 -2159.283,-250.049 -2797,225 -461.16,474.648 -1613.114,535.791 -2058,-257 -805.243,-296.856 -12.427,-6952.527 -257,-5627 575.736,-478.482 -417.291,-1260.531 193,-1254 667.857,-1035.428 -911.661,27.761 -1061,386 -1105.349,681.92 -2128.18,2340.542 -4212,1929 -1390.068,77.634 -3130.652,319.153 -2315,-997 -924.836,-322.608 -425.079,-1580.699 -1544,-1575 -846.978,-40.396 -2083.119,-428.999 -3408,-547 947.223,-521.887 1602.702,-1823.959 611,-2476 -419.7641,-900.204 -1122.3093,-1114.481 -1447,-1929 -1070.8798,-427.23 -990.6814,-2197.973 -1897,-2765 1063.0626,-373.495 -745.2523,-1084.671 -1029,-1769 543.5104,-607.805 -239.0135,-1044.93 900,-932 841.7589,24.47 220.2939,-653.308 -32,-1125 z"
     id="AC"
     inkscape:connector-curvature="0"
     inkscape:label=""><title
       id="title4862">Acre</title></path><path
     style="fill:none;fill-opacity:1;stroke:#070707;stroke-width:282.23678589;stroke-miterlimit:4;stroke-dasharray:none;stroke-opacity:1"
     d="m 6610,62120 c 109.1296,-1452.148 1733.7878,-2499.714 2830,-2701 1115.817,-800.781 -887.9059,-2191.14 160,-3183 1047.744,-823.625 1072.369,-2122.122 1447,-3441 203.818,-621.205 1317.823,-885.874 1801,-1222 435.879,-864.786 2013.322,-1030.657 2733,-2025 735.151,-486.013 1299.349,82.031 1833,-322 486.799,-107.066 1277.609,-260.921 1479,-353 643.039,-6.853 1412.937,0.742 1993,-1029 804.907,-97.04 423.316,-203.123 1061,-97 203.904,109.146 1524.669,-494.244 1254,611 396.182,301.078 651.861,194.16 933,-32 1074.323,966.38 1033.371,-2574.798 1355.789,-3500.022 399.03,-4063.206 2201.475,-9250.886 1795.211,-12576.978 -1070.496,-702.932 -516.279,-1519.629 -933,-2411 -1206.727,-681.892 -2679.647,-1610.72 -1929,-3666 -613.96,-2187.087 1016.445,-1290.009 1865,-1993 463.564,59.837 972.024,-742.957 1447,160 297.808,46.411 1392.495,141.22 804,-675 415.054,-1019.754 -656.419,-1848.27 -1962,-1575 -657.452,-318.983 -1540.499,591.309 -1221,-1029 -620.927,-1966.895 432.591,-2398.314 1736,-2251 1480.27,238.674 4953.115,189.124 6141,32 -814.851,-340.691 107.282,-1766.316 836,-546 1523.057,-196.41 155.548,-1010.899 1897,-836 82.492,-2660.517 5631.464,2104.271 1704,868 1865.012,131.837 -485.279,4388.131 1833,3054 1278.159,1899.706 3754.867,3096.372 4727,1480 1126.615,-917.375 2169.832,-43.092 1350,1061 924.381,867.619 838.311,-1802.346 1801,-965 148.938,-1150.356 430.741,-964.896 1125,-1383 194.119,-334.594 710.145,-529.276 1125,-289 421.278,-251.934 1679.968,-1842.26 1608,-965 -8.655,918.621 792.235,-724.284 1350,-836 55.594,-1146.314 328.637,-2117.954 1544,-1865 500.719,-200.347 970.179,-649.505 1768,-771 344.716,-411.502 1398.05,-5.021 1769,707 1562.746,-494.031 1862.339,1139.969 1029,2090 1167.444,1076.471 1733.584,2546.616 1607,3955 -797.755,1253.477 331.928,2029.957 257,3440 577.591,884.649 1172.688,1781.63 772,2508 -421.022,564.316 -138.568,1705.122 -1157,1190 157.928,1267.845 2472.423,1569.064 2829,3473 872.235,-570.56 2699.735,1763.936 1640,160 -667.374,-536.359 155.001,-1835.258 -32,-2604 246.935,-1396.976 1719.421,-2288.07 2861,-1672 698.562,595.966 1137.971,2278.239 2155,1318 505.92,-347.17 1315.676,-713.173 482,-1350 464.725,-1486.321 928.565,-2055.568 1704,-3561.248 6501.632,-677.165 5095.282,-36.227 5563,1278.248 -76.361,1366.048 952.408,1701.461 739,2926 1165.421,669.259 1226.415,1354.147 1801,2283 703.616,387.963 960.889,104.341 1479,-97 49.854,1082.986 319.712,1380.88 1125,1865 953.672,324.824 1617.837,1201.608 2508,965 730.068,96.58 1187.593,1509.25 2476,1672 -453.28,1333.153 1342.73,415.972 1961,353 1230.734,-1108.39 955.18,508.018 -386,772 -1142.546,4176.284 -3998.131,9173.327 -5819,13665 -1260.889,2857.019 -2589.146,5955.406 -4084,8328 729.419,1305.761 2147.965,2319.761 1286,3923 -649.555,919.538 -951.521,1590.973 -386,2701 -32.634,806.959 -955.748,2293.133 -417,2765 274.417,924.598 -5145.485,632.731 -4119.977,482 -3703.213,-172.66 -7796.088,264.812 -11282.023,-257 -791.719,-1004.336 -1150.314,1456.68 -2090,225 -502.945,-64.396 -643.456,-1685.228 -1029,-772 -270.342,-675.858 -520.863,-1615.62 -1222,-1447 -597.14,-945.091 -1307.592,-2445.203 -3259.932,-1800 -1764.878,-539.342 -2134.557,659.731 -2624.068,1736 -1387.496,-554.169 -306.575,1345.746 -1029,1447 -432.224,416.406 -732.657,933.544 -803,1640 -730.829,-56.999 -1506.286,134.222 -2412,160 -1013.141,-288.325 -1138.164,652.423 -1318,1447 -509.923,768.471 -1080.708,922.681 -1351,-160 -897.231,208.653 -915.942,595.028 -1061,1029 -996.931,-820.564 -1351.316,1378.426 -2122,0 -636.077,-607.244 -2020.715,-96.321 -2251,-161 -630.692,1785.512 -2606.748,2080.415 -4171.05,868.58 C 31868.023,72383.332 26869.511,68837.166 21343.714,66793.834 16257.43,65661.203 11206.107,64696.244 6610,62120 Z"
     id="AM"
     inkscape:connector-curvature="0"
     inkscape:label="AM-Etiqueta"
     sodipodi:nodetypes="ccccccccccccccccccccccccccccccccccccccccccccccccccccccccccccccccccccccccccccccccc"><title
       id="title4864">Amazonas</title></path><path
     style="fill:none;stroke:#070707;stroke-width:282.23678589;stroke-miterlimit:4;stroke-dasharray:none;stroke-opacity:1;fill-opacity:1"
     d="m 52171,10353 c -570.434,-1553.3935 -2653.223,-2049.5289 -2990,-3794 818.762,777.1 1910.959,753.9349 3055,675 597.727,912.4691 872.632,1355.2621 1672,932 934.684,562.5475 437.424,-980.3803 1125,258 548.279,440.9286 653.679,-194.5858 868,-483 1003.189,-84.5841 636.223,841.0894 1608,1190 -85.255,1361.244 1107.712,-363.3033 1479,257 -47.293,-751.072 -516.308,-2159.3997 900,-1607 9.726,-1128.0743 1013.184,-664.6925 2090,-354 287.989,-718.0468 797.891,14.9677 1254,-386 207.096,-816.8541 1701.021,122.5243 1576,-1157 755.267,-124.3083 1095.534,-229.4277 1093,-643 617.732,331.0961 1778.067,142.4855 1833,-869 1384.436,12.679 1614.353,-1920.6061 900,-2475 979.265,223.2599 1743.43,-7.0925 2444,-97 1413.784,400.2746 957.829,2652.6243 193,3344 221.33,390.5444 1179.261,368.2116 1671,450 1098.029,380.6391 -241.178,1314.0977 804,1736 100.236,787.5175 683.597,566.1083 225,1351 -283.82,302.1942 -887.308,985.608 -1350,1350 642.405,685.142 -247.937,1743.69 -418,2508 -321.118,1355.91 -55.002,3140.476 868,3666 655.019,417.697 -364.295,2207.817 482,2090 -360.936,808.149 1030.196,535.58 1158,1511 456.55,410.771 1346.917,1245.926 2411,1222 -307.917,1753.979 1234.858,5603.431 -485.977,5080 -2018.487,79.449 -5090.342,-610.955 -5494.023,1318 -406.84,1029.513 -1006.155,1902.972 -900,2894 931.923,731.507 -900.234,911.477 -901,1286 -1286.908,538.267 -957.531,-1570.2 -2347,-1575 -1063.651,-598.56 -2957.969,1239.512 -2347,2604 -399.626,736.27 -378.296,1728.021 354,2347 -289.709,-644.259 -1847.846,-554.622 -2251,-1254 -388.669,-1581.553 -2591.633,-1819.598 -2540,-3022 1160.034,605.829 599.356,-959.017 1382,-1543 -249.828,-941.923 -1306.962,-2326.87 -1286,-3859 -889.929,-888.299 744.486,-2776.558 -418,-3665 -48.549,-1398.174 -1719.755,-1789.507 -836,-3119 492.478,-1402.194 -1934.742,-722.654 -2186,-1769 -2244.542,-664.184 -4359.665,-786.133 -2347,-1029 -1727.678,39.712 -1889.622,-699.261 -1415,-1672 -309.558,-980.058 -1945.271,-2548.655 -933,-3697 z"
     id="RR"
     inkscape:connector-curvature="0"
     inkscape:label=""><title
       id="title4868">Roraima</title></path><path
     style="fill:none;stroke:#070707;stroke-width:282.23678589;stroke-miterlimit:4;stroke-dasharray:none;stroke-opacity:1;fill-opacity:1"
     d="m 96286,15497 c 905.638,-24.666 3288.78,2236.36 4405,740 378.86,-7.594 982.42,-766.122 1093,-129 620.59,525.187 1470.41,-116.261 1897,-32 528.18,466.204 -279.04,790.545 1093,515 930.2,529.641 1511.31,-773.244 2315,-1286 274,-992.916 1103.24,-2497.671 1286,-3441 1053.63,-1097.647 1832.04,-3233.6006 3184,-4373 205.11,-1631.9235 857.85,-2435.9958 1961,-418 602.64,1257.1367 949.36,2262.3596 675,3762 289.11,1589.82 988.92,3453.88 1286,4309 640.7,742.813 139.59,2509.339 1704,1479 734.07,1113.176 1269.38,2049.404 2540,2572 360.21,2011.097 27.71,4718.179 -2025,4952 -915.01,1078.746 -1237.58,2841.427 -2990,3086 -1441.26,1030.863 -2411.88,2582.537 -3344,4180 562.64,1446.428 -1356.97,1687.968 -1415,1640 -625.43,719.67 -521.07,-317.16 -1640,-225 -861.19,-289.33 22.36,-1531.896 -965,-1318 621.2,-1052.488 -507.6,-1147.312 -803,-1865 350.92,-1292.469 -1659.13,-1687.606 -1640,-3023 -1229.97,-1208.702 537.24,-2823.897 -1479,-3601 -916.35,-645.601 398.52,-1918.852 -868,-1640 121.72,-734.914 -823.69,-837.896 -868,-771 -785.59,105.278 -943.01,-657.306 -1705,-515 -242.202,-911.059 -872.216,-1229.652 -1961,-1254 -1322.485,115.469 -1092.359,-575.4 -1447,-1479 164.668,-637.584 212.776,-1146.518 -289,-1865 z"
     id="AP"
     inkscape:connector-curvature="0"
     inkscape:label=""><title
       id="title4870">Amapá</title></path><path
     style="fill:none;stroke:#070707;stroke-width:282.23678589;stroke-miterlimit:4;stroke-dasharray:none;stroke-opacity:1;fill-opacity:1"
     d="m 115835,83244 c 859.78,-1993.644 370.73,-3777.671 1511,-5401 456,-1778.375 1529.7,-3375.732 1897,-5145 854.14,-1450.583 2612.62,-2479.634 3216,-4212 836.14,-1157.841 1433.1,-3093.116 -97,-3923 14.38,-1080.574 1348.87,-2039.351 740,-3344 941.93,-1017.349 2821.7,-641.116 2829,-2315 912.48,-721.208 1168.59,-192.544 900,-1414 905.41,-198.417 275.63,-891.118 836,-1319 -987.64,-778.585 1572.16,-1291.53 -160,-1736 -207.76,-1089.338 -1804.76,-319.565 -2187,-900 765.77,-152.213 1458.56,-1482.195 2669,-450 1391.44,-535.402 1617.96,883.644 2926,996 907.37,2105.28 876.18,4621.606 161,6720 422.77,1113.855 -2028.41,1929.839 -386,2090 1301.55,170.952 1408.12,1236.574 514,1029 397.5,501.129 710.77,695.527 772,997 478.91,294.295 947.79,1657.955 1672,1768 416.05,-523.584 2249.31,-1253.493 2347,193 307.49,1415.443 -1603.18,1122.527 -1672,1897 -384.2,669.25 -330.7,771.344 -386,1865 -563.74,400.842 -1057.13,1236.369 0,1126 101.96,179.045 490.7,765.278 579,1221 733.31,483.731 1579.34,803.355 740,1962 1192.03,86.058 382.82,2367.923 2154,2186 630.87,-234.575 1687.19,1015.904 2122,-64 590.18,434.273 -691.45,1361.958 -1222,1768 -1234.92,412.244 -926.83,1263.173 -1801,2187 -598.77,1024.951 -1659.46,1736.536 -385,2604 721.61,66.132 2690.58,856.676 868,515 -261.02,431.569 -601.05,983.975 -193,1350 1665.66,-129.847 -1035.05,345.608 -257,1158 -200.48,928.075 510.29,1387.869 996,1929 -1037.69,109.321 -414.52,1681.547 -514,1961 1779.32,-372.012 -1115.75,869.517 -450,-321 -908.6,313.376 -658.05,685.101 -1833,482 -946.11,867.036 -1884.75,1060.683 -2701,1415 -800.73,245.95 -702.54,-506.906 -1511,-676 -321.44,509.487 530.09,2449.592 -1061,965 -666.44,-62.924 -875.5,-529.5 -1447,-32 323.83,-1342.285 -727.57,-271.34 -1029,-225 -594.63,457.23 -360.63,-1468.075 -804,-32 -287.36,511.96 77.39,-1592.926 -836,-1286 -239.02,-1052.431 -851.76,-880.889 -1350,-386 -342.41,-485.091 -983.19,-607.289 -1222,386 -688.58,733.839 101.06,2126.756 -1575,739 -1360.29,-1223.326 -3995.67,-1084.02 -3152,-2251 244.35,-429.658 458.84,-1241.27 451,-1254 -848.72,201.338 -1309.71,1449.271 -1672,2026 -529.18,-58.529 -797.58,-1023.876 -643,-1479 439.56,-1022.7 -324.11,-2231.93 32,-3280 -499.04,-640.123 328.99,-1338.904 -386,-1929 v -64 z"
     id="TO"
     inkscape:connector-curvature="0"
     inkscape:label=""><title
       id="title4858">Tocantins</title></path><path
     style="fill:none;stroke:#070707;stroke-width:282.23678589;stroke-miterlimit:4;stroke-dasharray:none;stroke-opacity:1;fill-opacity:1"
     d="m 64261,72698 c 867.602,-68.387 150.243,-1282.412 675,-1929 -1099.9,-1175.233 5053.497,-789.929 4087.977,-418 3516.596,-251.066 7453.934,560.835 10767.023,-289 -493.742,-26.804 -246.406,-1502.64 129,-2155 498.773,-1143.774 -836.349,-2226.181 418,-3151 -98.581,-1582.611 1181.485,-1780.262 1447,32 195.731,1386.254 1643.11,2413.42 1189,3794 252.887,818.667 329.906,1648.104 1254,1897 632.732,430.26 1878.027,886.04 1865,1930 1354.724,-236.286 858.306,1378.174 2252.817,789.14 9947.942,895.396 20073.913,1535.095 29933.183,2296.86 -725.51,1438.043 -1281.2,3019.443 -1672,4245 -82.41,1316.983 -675.68,2685.03 -676,4180 613.09,211.602 -198.11,1366.522 258,1704 -194.12,1271.143 477.19,2554.759 -161,3537 546.49,450.267 276.75,856.696 932,1157 -680.2,981.134 -256.93,2362.103 -1318,3569 -715.21,767.694 51.32,2218.788 -675,2765 -629.99,1417.749 2.87,3740.24 -1769,4084 -1139.36,-430.75 -1907.89,1318.55 -2025,2347 -195.38,233.07 -368.77,1737.42 -1222,1672 -885.89,195.44 -1439.31,379.14 -1865,1254 -1017.14,200.61 -760.72,857.6 -1447,1125 557.95,730.72 112.12,1186.35 -193,1383 -380.99,944.32 -1684.36,1069.21 -1640,2251 -639.22,613.09 -632.15,1368.41 -803,2154 -292.77,856.41 615.32,1425.33 803,2572 -1121.94,-246.94 -1638.49,-243.02 -2315,-128 -610.01,-95.88 -1272.47,-219.68 -1672,-483 -533.84,-56.75 352.72,-1480.35 997,-1254 441.52,-1433.34 -20.93,-2793.73 -804,-1415 -957.33,647.95 -796.93,1262.71 -1800,1319 -844.874,-221.36 -1754.298,-1465.35 -2894,-97 -1114.512,224.04 -1723.571,-30.34 -2251,-386 -1200.968,-193.03 -1123.615,-1181.91 -2122,-1028 -669.958,-359.13 -835.351,-454.78 -1576,-772 -842.469,488.06 -1509.58,694.87 -2475,772 -762.057,-269.38 -1052.363,957.71 -1511,1382 -781.537,1108.11 -1838.905,1000.98 -2444,1190 -1216.898,-258.75 -611.859,-1494.63 -1929,-1994 -1176.96,558.79 -1635.487,-617.32 -2412,-1286 -183.406,-1000.03 -875.99,-1994.52 290,-3472 90.152,-906.42 147.784,-1207.28 -1065.019,-773.42 -2683.768,-930.16 -7178.141,-7089.407 -7856.899,-2701.67 C 68249.717,98821.874 69731.375,95813.612 70467,98742 c -147.933,-1069.274 -983.692,-1488.067 -611,-2572 591.245,-770.862 -347.987,-1025.469 -193,-1415 -595.65,-140.263 -1699.195,-726.135 -193,-1254 1214.121,-601.934 748.456,-2377.269 2026,-3022 -264.99,-1358.986 799.094,-1986.085 1318,-2572 -59.711,-601.972 -757.818,-1749.311 -804,-2348 -825.681,-270.328 -839.699,-1637.861 32,-2154 624.427,-499.948 -6.402,-1862.687 -257,-1704 -576.596,-270.249 -1521.636,6.152 -1736,-354 -850.691,-943.746 -4710.673,347.71 -5273,-546 187.64,-1042.726 503.404,-2382.808 -258,-3569 -90.149,-490.651 512.536,-2069.312 161,-2412 685.892,-638.585 -406.997,-1485.073 -418,-2122 z"
     id="MT"
     inkscape:connector-curvature="0"
     inkscape:label=""><title
       id="title4856">Mato Grosso</title></path><path
     style="fill:none;stroke:#070707;stroke-width:282.23678589;stroke-miterlimit:4;stroke-dasharray:none;stroke-opacity:1;fill-opacity:1"
     d="m 104003,112858 c 162.04,-685.08 211.36,-1633.62 836,-2090 -8.51,-902.13 553.12,-1215.56 1093,-1544 517.2,-832.78 746.63,-688.87 1029,-1479 -966.75,-634.89 444.56,-804.01 321,-1415 1217.88,-152.75 1185.25,-1767.34 2605,-1414 507.35,-125.89 1274.66,-1247.78 1157,-1576 428.59,-983.84 552.81,-2752.25 2122,-2765 1155.39,473.29 1429.74,-1744.204 1511,-2669 97.44,-1421.655 1000.52,-2040.869 611,-3537 928.36,-851.733 1282.4,-2684.514 1383,-3472 565.12,-1506.827 599.58,-2203.273 1801,-2830 113.62,-273.881 -115.6,794.593 -354,1029 -589.53,731.445 85.29,1413.014 1318,1479 1108.76,370.279 3336.9,2629.749 3055,611 503.49,-1087.343 1050.72,-1482.065 1575,-643 672.39,-1438.392 1099.05,224.085 1576,354 783.15,177.482 83.82,2329.828 707,804 374.52,-421.236 113.1,1078.772 836,386 318.81,-350.05 1100.94,-637.616 965,257 518,-536.554 789.73,115.079 1607,161 1502.87,1662.708 51.82,-1748.382 1094,-901 606.5,480.319 758.82,709.201 1543,386 656.28,-271.036 1553.87,-545.457 2347,-1286 1489.17,865.47 1886.66,-1610.315 1768,96 1140,-231.276 1418.53,-329.867 419,322 -305.97,900.979 -165.16,1814.786 1157,1093 -859.77,598.908 -1108.5,1148.193 -675,1672 -768.73,719.562 7.28,1323.256 -257,2315 113.54,362.523 1990.71,825.253 1254,1672 -389.53,17.237 224.03,963.046 -226,1254 357.43,1319.09 -1366.14,1618.08 -1607,515 -1615.33,-1340.507 -141.35,1357.22 -1158,1414 -1058.62,-891.49 -1889.97,280.31 -1350,740 606.3,575.92 -782.15,1432.74 193,2025 1006.66,1672.86 -1680.95,1211.3 -1640,1608 -1142.93,764.41 -749.6,-747.1 -611,-1511 -75.89,-1457.2 -2908.56,-703.47 -4148,-772 -76.97,1111.09 -369.3,1631.11 -353,2637 1097.94,161.69 4508.12,-360.95 4469,193 298.58,552.26 -679.43,1555.25 -450,2218 752.81,202.59 927.38,1030.67 1254,1801 418.35,860.43 -828.66,834.66 -1190,1736 -143.52,536.52 -929.48,285.18 -354,1254 835.34,-344.97 1362.31,692.41 643,1286 102.3,837.98 466.15,1600.37 -546,1897 -682.2,28.17 -777.64,1074.36 -1576,1094 -523.58,872.81 -1338.05,-136.36 -2315,-290 -548.17,312.21 -1805.91,-195.1 -2572,0 -777.03,-103.67 -1472.35,253.54 -1865,643 -537.89,1011.95 -966.8,604.42 -1511,129 -344.31,761.02 -1584.7,444.69 -2379,675 -1537.01,-110.44 -1963.67,1480.46 -2541,2412 -750.95,-44.52 -1540.34,1193.53 -1221,1768 -915.49,-619.7 -1585.47,-1124.81 -2508,-1479 -1259.21,-260.42 -2145.86,-694.46 -2991,-1093 -442.86,-346.39 -1362.81,-631.23 -1929,-1061 -365.23,-828.64 -3419.01,156.73 -2218,-1415 1323.91,-919.64 -496.42,-628.48 -1061,-740 -162.58,-1146.72 293.79,-2136.19 -547,-2861 -251.44,-257.9 -71.27,-820.3 -96,-1093 z"
     id="GO"
     inkscape:connector-curvature="0"
     inkscape:label=""><title
       id="title4850">Goiás</title></path><path
     style="fill:none;stroke:#070707;stroke-width:282.23678589;stroke-miterlimit:4;stroke-dasharray:none;stroke-opacity:1;fill-opacity:1"
     d="m 81302,122857 c 1712.703,-2387.36 2846.895,-8696.96 2117.371,-5967.09 1619.362,-466.25 253.096,-3491.5 -445.371,-2552.91 -1013.893,-1080.12 -78.82,-1754.13 32,-418 523.259,513.56 1034.33,1025.89 1801,450 525.355,84.43 1458.961,-644.28 1833,-1351 507.929,-864.06 866.174,-1099.28 1897,-1125 795.799,252.21 1249.399,-832.24 2315,-547 280.317,717.87 1924.182,407.24 2186,1254 1067.635,425.79 1323.556,676.64 2090,933 675.066,134.12 1684.541,-516.2 2605,-804 954.214,55.86 732.821,1381.41 1929,643 492.17,50.03 779.78,-916.54 1511,-1318 1019.99,-1666.44 1147.81,1939.94 -129,1897 -957.85,1154.07 273.57,1059.06 836,1350 495.06,-82.88 1113.89,170.13 1351,-32 796.52,211.74 1789.72,-135.28 1286,804 -436.21,1714.47 2070.57,-27.84 1575,1254 -1827.01,768.05 484.47,1697.6 1415,1254 757.01,859.21 1748.41,962.47 2347,1447 867.29,313.06 1484.73,880.98 2830,996 704.85,487.95 2664.69,901.98 2090,1994 -761.25,1128.67 649.18,3697.42 -1801,3762 -878.39,885.92 -1409.57,1984.5 -1543,3022 -1393.85,435.84 -387.22,1972.3 -1640,2637 -512.9,223.51 -121.96,1491.9 -1157,1929 -800.58,2052.81 -3585.17,2447.9 -4663,4051 -1817.72,269.6 -1702.96,2133.92 -2701,3151 -1723.424,142.86 -605.74,3666.05 -2379,3119 -935.69,-1161.26 -2258.918,-1025.84 -2990,-289 -1121.582,240.52 -2704.113,402.22 -2379,-1190 -897.52,-842.83 77.764,-2283.73 -708,-2990 -590.361,-1016.37 436.248,-2058.12 -707,-3087 38.293,-1321.97 -1811.14,-664.36 -2476,-1157 -706.421,-1182.39 -1127.85,-636.51 -1736,128 -597.192,-304.42 -1068.887,288.07 -1865,-128 -918.94,-94.55 -1843.888,141.1 -2701,-579 -607.592,-205.69 -1587.901,480.25 -1865,-450 488.323,-779.56 314.135,-1151.67 322,-1833 -468.224,-465.99 663.607,-1456.07 64,-1833 593.557,-704.82 405.059,-1738.6 64,-1961 -153.525,-580.96 -150.946,-1659.06 -32,-997 -696.666,307.89 -427.739,-2124.45 -1190,-2154 -299.804,-776.67 2734.968,-995.96 527.967,-1971.52 -944.577,-214.12 84.096,-900.53 83.033,-1340.48 z"
     id="MS"
     inkscape:connector-curvature="0"
     inkscape:label=""><title
       id="title4846">Mato Grosso do Sul</title></path><path
     style="fill:none;stroke:#070707;stroke-width:282.23678589;stroke-miterlimit:4;stroke-dasharray:none;stroke-opacity:1;fill-opacity:1"
     d="m 114452,124015 c -47.97,-655.13 557.5,-1300.4 611,-1511 438.3,189.57 168.92,-1370.93 1093,-1544 1136.3,-360.67 1091.07,-2777.51 2959,-2540 840.18,-219.44 2040.26,70.85 2443,-707 484.35,557.82 742.75,880.25 1351,128 327.07,-815.54 1064.26,-684.76 1768,-932 812.29,100.25 2060.82,69 2637,193 979.5,-202.36 1989.92,1084.7 2443,193 947.63,-246.1 866.39,-1076.05 1769,-1222 1161.97,-398.18 -199.55,-1595.84 771,-2701 -598.95,-646.8 -1502.01,-292.83 -1254,-1125 492.31,-161.59 827.64,-1072.29 1287,-1351 741.88,-234.8 540.43,-677.04 225,-1350 32.23,-1273.49 -1014.4,-686.26 -1094,-1833 924.52,-1204.93 39.06,-2082.9 1319,-2347 -283.75,-280.68 2616.33,58.05 1447,-1383 -366.27,-548.75 -409.99,-1333.23 96,-1768 -920.83,-557.12 -239.72,-2147.36 1093,-1158 1024.32,-46.97 -461.08,-2707.154 1126,-1447 290.8,818.29 1029.82,857.73 1639,451 790.16,675.79 -1199.53,2310.63 193,1543 741.04,-392.79 1576.75,-445.15 2026,-1222 1083.98,12.67 1360.43,-1093.612 2444,-1254 1103.69,-660.854 1207.79,-1149.777 2283,-1704 1098.21,-648.13 1886.07,-324.889 2668,-354 791.02,156.226 1088.86,261.55 579,1672 -148.48,354.579 1548.54,831.507 1833,868 640.56,-982.281 2555.9,-639.875 3086,97 985.69,548.32 1694.79,1146.26 2766,1479 608.57,-51.48 1307.79,693.66 2122,-64 1716.26,418.33 3754.2,3289.8 2765,3118 757.3,162.36 1352.85,-502.63 1833,-418 469.65,75.76 1008.05,483.47 1479,644 400.93,55.96 1641.38,107.27 1704,578 536.58,-3.73 589.68,537.77 1125,611 676.5,809.01 -620.41,1792.9 -964,2155 -159.92,779.04 -920.01,236.8 -933,1350 542.68,463.89 144.5,994.06 -739,643 -572.55,998.23 -524.33,2178.41 -483,2637 785.71,993.19 1325.06,1004.53 1897,2122 -129.22,1290.83 -1548.28,-417.55 -2122,611 -435.57,523.27 -1906.93,-760.86 -707,643 -516.56,288.95 -1357.66,-112.62 -1672,836 -705,1012.17 1006.06,658.94 386,1800 1109.11,251.3 362.56,1510.92 -579,740 -1046.18,303.96 1251.44,638.56 547,1254 903.64,532.07 766.93,1752.62 32,2347 -472.5,458.67 -651.85,1176.76 -772,1768 -827.73,642.12 -639.64,2306.17 -2636,1608 -688.79,593.59 75.86,1151.72 -386,1929 159.13,485.96 -489.63,1567.04 -1447,1736 693.57,349.97 -445.58,937.52 -354,1480 81.06,684.63 -622.84,1233.3 -514,1864 903.82,425.67 -2145.1,1016.03 -2701,1608 -715.97,281.67 -1073.99,822.55 -1254,129 -1318.47,43.47 -2203.76,337.09 -3312,386 -1132.05,479.25 -1769.39,832.78 -2829,868 -1116.4,685.63 -2849.73,749.01 -3923,1640 -490.4,92.59 -1207.56,95.54 -1222,64 -464.02,255.85 -546.73,-390.44 -836,-32 341.83,255.54 -869.97,514.13 64,611 24.91,700.43 -746.56,403.4 -1157,546 -878.23,381.77 -1126.16,62.91 -1962,64 676.3,-589.58 -1100.28,-894.97 -64,-996 163.86,-918.05 -1829.8,-991.29 -1447,-2090 529.9,-404.49 232.12,-702.77 -64,-772 752.52,-292.5 -145.23,-1074.95 418,-1897 828.37,-278.29 563.96,-1334.57 -129,-1479 -278.51,-360.59 -1427.18,413.8 -1704,32 -318.35,-897.97 -507.34,-1394.12 -964,-2283 6.31,-1025.04 1088.6,-1714.62 -354,-2411 32.65,-586.07 393.57,-1579.97 -740,-1962 -152.04,-721.57 -1020.63,422.68 -1543,-225 -694.1,283.85 -603.91,623.88 -1093,515 -516.04,892.52 -1366.87,-1017.83 -1158,257 -1224.38,-108.39 -3461.01,-353.86 -3054,1447 -515.8,-905.78 -2407.32,734.57 -1447,-643 -1279.47,-538.28 593.93,-2250.01 -1254,-1608 -962.98,-605.08 -2485.44,35.5 -3601,-546 -811.31,44.27 -1554.23,-847.76 -2187,225 -1164.62,242.71 -1757.99,1371.28 -1607,-354 159.61,-161.58 -93.85,-150.18 -65,-257 z"
     id="MG"
     inkscape:connector-curvature="0"
     inkscape:label=""><title
       id="title4844">Minas Gerais</title></path><path
     style="fill:none;fill-opacity:1;stroke:#070707;stroke-width:282.23678589;stroke-miterlimit:4;stroke-dasharray:none;stroke-opacity:1"
     d="m 97540,151634 c 1155.958,-1519.17 809.374,-3568.63 1640,-5305 -1227.161,-1476.55 1324.66,-1791.1 1028,-3376 122.81,-1566.9 2340.6,-1605.87 2058,-3505 1239.12,-827.79 2180.71,-1471.49 3312,-1832 1178.21,311.36 2507.57,55.46 3440,385 188.17,-1405.43 1872.93,274.56 2605,33 1116.58,16.97 2152.23,195.42 3280,707 732.78,91.3 724.02,1194.56 1414,514 1053.87,175.48 2317.2,226.48 3183,0 190.16,1002.5 1770.8,977.77 1672,2187 283.46,317.57 -239.46,1171.27 290,1865 -447.89,801.95 281.48,936 546,1640 512.87,235.64 641.73,1146.9 997,1414 -348.04,622.27 -783.46,2011.84 707,1511 327.34,-248.04 1473.95,103.54 1898,97 749.8,-316.94 854.71,521.17 546,1029 -370.88,782.95 224.93,1040.74 900,482 406.33,530.79 654.29,-583.89 965,675 -400.32,780.62 1351.34,66.82 322,868 -838.94,1041.5 -1955.7,1956.28 -2412,3248 -1459.58,59.63 -2823.11,-78.46 -3344,611 -920.88,723.59 -1505.12,639.29 -2186,64 -419.92,-756.1 -1573.68,-343.42 -1801,-386 -499.98,-136.85 -791.3,488.39 -997,322 -432.53,-560.81 -976.54,-494.83 -1093,-193 -495.88,585.42 -1042.65,1260.83 -1640,836 -258.92,-157.56 -2134.97,499.04 -1511,1190 636.7,719.72 -963.35,1484.79 -1093,514 -1468.31,193.34 -2467.92,-185.17 -3569,-643 -1319.31,-89.04 -2571.97,-808.89 -4148,-418 -709.63,-730.15 -1206.17,-499.5 -2154,-482 -577.56,-450.33 -1113.88,-1466 -1126,-1672 -214.81,-509.6 69.41,-1482.24 -771,-1576 -358.45,-529.18 -777.216,457.12 -611,-546 -445.439,579.22 -1151.703,341.35 -1608,803 -439.583,-300.43 -872.098,-388.29 -739,-1061 z"
     id="PR"
     inkscape:connector-curvature="0"
     inkscape:label=""><title
       id="title4838">Paraná</title></path><path
     style="fill:none;fill-opacity:1;stroke:#070707;stroke-width:282.23678589;stroke-miterlimit:4;stroke-dasharray:none;stroke-opacity:1"
     d="m 84646,173756 c 241.2,-1242.34 2292.477,-1634.15 2701,-2958 391.964,-885.13 1471.406,-1311.91 1769,-2026 454.048,-815.94 1672.649,-1341.48 1897,-2218 543.001,-233.98 2033.382,190.37 1382,-418 -628.243,-624.62 207.146,-1380.47 482,-1287 833.821,-203.59 1406.577,-1432.63 2187,-1414 735.172,-183.74 16.997,-352.59 932,-515 149.797,-1090.26 789.518,-752.84 1190,-1093 244.949,-194.9 697.275,-178.18 1093,-386 305,-211.3 1051.828,127.94 1383,-932 576.06,549.16 1058.33,-1113.6 1672,-450 568.07,-68.13 1305.82,432.11 1543,-161 527.84,-447.24 918.28,127.07 868,289 668.14,-93.15 939.26,-336.82 1286,-450 90.59,520.52 151.27,503.82 836,354 480.65,468.17 1006.48,508.92 1737,289 363.79,-35.61 579.07,551.99 836,225 222.93,-117.92 423.31,263.02 643,161 797.86,96.1 751.87,295.87 1093,579 159.32,485.56 597.25,408.33 1254,289 252.34,271.74 663.6,186.25 1190,804 412.33,-7.9 1230.44,751.94 1736,1125 353.83,479.45 874.59,580.3 932,1222 569.83,325.66 1374.85,1723.19 2412,1543 337.86,-154.72 989.69,184.45 1093,0 688.8,85.4 1235.34,-11.59 1415,65 265.23,-194.77 937.06,1060.38 96,739 -258.12,721.95 -1012.94,564.08 -675,1319 -108.61,661.21 47.66,786.58 -225,1125 -290.09,456.6 -566,208 -547,514 -719.38,-362.62 517.05,1199.31 65,161 775.54,-578.48 1658.06,241.46 1704,515 -2538.16,3324.02 -3204.84,7946.93 -6913,10417 -2584.81,2178.97 -5742.73,3182.05 -6270,6881 -792.69,1747.81 -2750.73,3483.09 -4341,4051 -1037.38,-310.57 -654.37,-3407.83 579,-3536 -431.13,-568.28 2000.23,-1236.94 322,-1865 -1210.31,-254.98 -2084.07,-1365.99 -2380,-2573 -311.42,-152.6 -1283.93,-1228.37 -1736,-932 -1736.806,-661.9 -1602.292,-2659.8 -3440,-2283 -556.912,-319.2 -662.007,-1089.27 -1254,-611 -1263.066,-545.11 -1171.648,-1863.04 -2508,-2283 -214.016,529.71 -828.804,1114.24 -1801,1094 374.57,-1497.41 -790.235,-1848.69 -1157,-2476 -1001.016,-582.05 -1495.541,-1375.11 -2251,-1930 -998.596,-716.31 -1940.356,-494.7 -2315,579 -644.195,-123.43 -1511.06,210.35 -1962,-546 718.963,77.81 898.744,-738.83 1447,-997 z"
     id="RS"
     inkscape:connector-curvature="0"
     inkscape:label=""><title
       id="title4834">Rio Grande do Sul</title></path><path
     style="fill:none;stroke:#070707;stroke-width:282.23678589;stroke-miterlimit:4;stroke-dasharray:none;stroke-opacity:1;fill-opacity:1"
     d="m 135416,82601 c 614.35,-864.73 1816.38,-2234.776 1897,-3151 849.38,-569.774 2271.89,-1129.284 2412,-2411 332.69,-744.394 1190.83,853.676 1382,1447 -617.92,1467.954 1928.5,2416.987 2830,1961 492.89,-893.714 1377.15,-1186.467 2379,-1447 986.65,1148.689 1208.59,-993.603 1865,-900 587.07,-957.223 1133.75,-1789.489 1126,-2444 -270.01,-583.805 -1653.98,-1864.272 32,-2347 971.49,-1535.105 1904.47,706.358 2668,-96 806.79,-83.707 1246.81,1781.728 1865,739 1271.64,-11.643 2297.1,-1793.16 3827,-1350 617.62,-803.076 1344.13,-1336.868 1929,-1930 557.82,-1101.53 1888.85,-895.654 2250,-96 929.15,-148.92 841.94,1479.81 1640,1704 -465.51,627.541 -605.13,1871.52 643,1125 1090.27,106.188 933.59,-1234.474 1544,-1768 732.76,586.288 1746.05,-483.886 1607,-1158 1256.78,14.975 799.42,-996.631 1994,-1286 1082.59,-383.098 844.65,1155.819 2058,933 705.98,247.805 1546.33,371.007 1865,1125 -173.18,-2889.6 3504.37,3535.924 803,193 1299.99,-709.52 299.5,2173.396 1801,2058 641.65,589.007 -109.25,1302.618 482,2026 -67.58,749.635 1357.34,964.875 1093,2282 -1031.37,220.05 225.2,2580.491 -1446,1930 -1374.04,-458.427 -868.72,1455.446 -161,1672 117.54,599.873 651.62,860.867 450,1350 381.98,608.295 510.53,476.048 1286,1029 256.07,-35.117 1283.95,-77.672 1736,-418 -1582.76,2652.389 -2800.21,6153.301 -5466,7556 -370.28,-941.404 -1175.82,789.477 -2122,1093 158.62,919.24 218.98,1053.296 193,1897 -56.14,83.824 -699.13,813.321 -96,1544 -314.16,1867.053 -854.74,3620.807 -322,5144 -241.8,2275.41 1365.24,4399.48 -128,6302 -188.41,940.57 -520.23,2963.57 -901,4309 172.02,1881.38 615.91,3313.33 -1318,4051 -494.46,293.92 -536.26,1527.29 -932,1576 -970.76,-784.67 -3250.43,-1539.07 -2444,-2508 -612.65,-990.88 -1006.31,-940.41 -1769,-1897 -41.33,-458.59 -89.55,-1638.77 483,-2637 883.5,351.06 1281.68,-179.11 739,-643 86.06,-1049.23 928.69,-841.1 1061,-1447 962.61,-667.19 1501.48,-2253.97 225,-2347 -158.64,-333.31 -542.4,-372.29 -1093,-772 -968.81,-97.01 -1332.79,-2.27 -2026,-707 -580.42,252.13 -1168.84,-344.25 -2025,482 -1568.54,198.95 -683.97,-2113.85 -2423.67,-2580.02 -674.91,-1299.12 -2042.48,332.4 -2528.33,-666.98 -1224.3,110.33 -1984.73,-937.61 -2958,-1319 -729.54,-1075.286 -2758.31,-914.134 -3472,-128 -826.35,-682.908 -2411.14,-362.149 -1319,-2026 -4.79,-798.706 -1372.42,-336.892 -1897,-707 -1090.6,79.868 -2095.74,777.539 -2829,1286 -143,685.087 -2090.87,1144.532 -2669,1897 -766.73,257.36 -1277.68,644.75 -1768,1093 -743.34,-192.64 -1654.18,1051.99 -1608,322 891.95,-694.04 166.44,-1656.357 321,-2508 445.92,-536.567 -282.14,-1131.912 515,-1576 -558.07,-872.311 -1840.83,-843.925 -1511,-1865 -196.85,-967.65 -135.89,-1099.615 225,-1961 -699.19,-373.182 230.09,-913.445 643,-1447 -1412.88,990.41 -1576.67,-631.993 -868,-1318 1186.22,-378.44 -201.42,-259.31 -290,-450 224.75,-850.91 -181.45,-1637.692 643,-2123 -1008.77,-214.323 -1088.4,-1223.291 -1029,-2218 748.03,-571.856 1302.22,-608.866 65,-643 193.36,-520.395 -129.29,-1562.543 1093,-1158 368.85,-537.567 -2085.31,-206.29 -2026,-1350 -175.72,23.91 -233.49,-187.851 -225,-322 z"
     id="BA"
     inkscape:connector-curvature="0"
     inkscape:label=""><title
       id="title4854">Bahia</title></path><path
     style="fill:none;stroke:#070707;stroke-width:282.23678589;stroke-miterlimit:4;stroke-dasharray:none;stroke-opacity:1;fill-opacity:1"
     d="m 138535,77489 c 620.3,-1289.852 502.77,-3059.203 708,-4116 -782.84,-612.209 -533.73,-1743.767 -836,-2668 925.72,-1073.987 1230.3,-2321.015 1929,-3891 134.77,-1346.322 467.29,-2525.334 2411,-2765 706.57,-267.807 1280.22,-708.456 1833,-740 889.11,-1050.123 2093.13,-1306.334 2637,-2540 174.14,-248.582 2293.65,-1246.584 3118,65 978.36,-360.683 3115.68,-301.878 2733,-2058 587.33,-1252.165 -1532.7,-1669.609 -1061,-3248 -76.84,-1341.219 2262.98,-2113.166 1158,-3858 -880.24,-963.425 183.77,-1773.587 -129,-2733 -1357.96,-1130.987 1297.85,-2078.239 997,-3601 699.06,-1304.31 1347.82,-904.284 2251,-1319 429.35,-659.505 800.67,-638.681 1254,-1254 1030.25,-482.83 2.23,-1811.602 707,-1832 832.83,936.015 3380.31,419.214 2187,1993 -1020.16,1031.441 443.77,1367.214 -97,1994 245.76,649.7 544.29,738.069 354,1286 128.21,920.148 189.18,704.636 707,1093 377.19,970.356 -792.83,2259.31 -386,3055 -699.4,1185.189 837.95,1693.335 1319,2572 27.22,1383.75 -160.31,3683.263 675,5434 -654.85,1557.951 1574.6,1895.66 1865,2379 -368.85,925.072 -296.19,2566.542 -1544,3215 512.63,739.584 68.47,1397.399 836,1865 72.83,1336.473 -1103.3,1866.813 -1543,2412 -446.05,279.668 -1257.21,631.687 -1768,1414 -1137.5,515.244 -1465.13,1596.899 -2348,2026 -414.41,1718.373 -2648.92,352.657 -3408,1929 -938.8,147.85 -1496.21,1050.8 -2251,322 -501.16,-1511.193 -1721.91,220.907 -2540,-1318 -1392.53,546.163 -2601.13,2039.955 -900,2861 -282.87,721.64 -178.99,1135.981 -868,1994 -363.18,953.555 -1034.58,840.3 -1415,1865 -752.45,-190.402 -1110.58,-500.121 -1833,64 -1055.71,71.744 -1435.9,2006.749 -2797,932 -1464.08,-19.27 -1491.9,-1555.953 -1640,-2443 -425.56,-961.505 -1040.99,-1431.163 -1575,-354 -294.43,-2.818 -445.49,-242.397 -740,-32 z"
     id="PI"
     inkscape:connector-curvature="0"
     inkscape:label=""><title
       id="title4874">Piauí</title></path><path
     style="fill:none;stroke:#070707;stroke-width:282.23678589;stroke-miterlimit:4;stroke-dasharray:none;stroke-opacity:1;fill-opacity:1"
     d="m 160014,43760 c 264.54,-870.17 1212.37,-1512.621 418,-2090 2141.58,-217.672 4171.12,-777.23 6205,-418 568.36,271.36 2946.41,1414.187 4051,2379 947.9,373.231 2200.16,1972.021 3280,1898 824.6,1502.221 2561.14,2733.611 3698,3987 601.24,590.739 3371.88,1176.282 1029,1736 -1807.42,564.978 -1359,2838.233 -2894,3826 257.59,764.196 -982.7,2327.775 -1672,1994 -565.3,653.668 -868.82,1555.701 -579,1736 -831.85,1050.35 -50.97,1816.075 -932,2476 31.86,221.612 485.17,931.668 514,1189 985.98,618.7 -78,1855.629 -675,2380 -462.7,60.394 -1022.62,1258.565 -1447,675 -527.8,-788.794 -1029.31,-460.702 -1125,-1351 -1116.93,-1224.322 -2522.4,-1191.07 -3891,-578 -1273.1,-13.389 -2391.84,-144.679 -1447,-1640 147.61,-632.024 562.92,-1286.739 -64,-1640 -2005.21,-37.206 -1385.09,-2565.138 -1994,-3633 -341.07,-1611.173 101.9,-3086.099 -385,-4148 -841.72,-500.745 -1620.83,-1440.623 -1094,-2508 -326.85,-670.768 1270.59,-2846.016 -96,-2990 -218.72,-155.841 -165.53,-1383.974 -257,-1576 -930.87,-569.004 332.53,-1134.878 -643,-1704 z"
     id="CE"
     inkscape:connector-curvature="0"
     inkscape:label=""><title
       id="title4878">Ceará</title></path><path
     style="fill:none;stroke:#070707;stroke-width:282.23678589;stroke-miterlimit:4;stroke-dasharray:none;stroke-opacity:1;fill-opacity:1"
     d="m 173454,58068 c 461.76,-780.669 796.55,-1154.62 1543,-1157 912.44,-1086.066 747.36,-1967.325 1736,-2990 676.51,-1227.145 974.77,-3139.094 3023,-2862 724.38,706.992 2147.65,372.308 2636,1190 1970.18,160.348 4728.55,-854.731 6238,996 1059.79,1936.772 1114.03,3899.203 1865,5852 -1276.73,673.393 -2450.09,-459.746 -3794,-32 -1096.78,-63.327 -1604.6,-317.701 -2444,-514 -14.36,-1155.668 -1809.09,435.739 -707,1061 -633.85,-149.39 -160.2,806.288 -547,1189 -933.12,1512.429 -707.41,-492.512 -1640,-418 -362.63,-171.179 -1041.06,163.374 -1672,161 -53.98,-712.037 -1717.54,-379.272 -836,-1254 -117.46,-1087.73 1760.74,-1520.687 1094,-2411 -828.71,286.51 -2007.48,606.747 -2701,996 -224.79,814.355 -1125.53,825.432 -1704,1351 -1057.45,-125.047 -1579.8,-805.5 -2123,-997 50.42,25.707 118.61,-197.421 33,-161 z"
     id="RN"
     inkscape:connector-curvature="0"
     inkscape:label=""><title
       id="title4880">Rio Grande do Norte</title></path><path
     style="fill:none;stroke:#070707;stroke-width:282.23678589;stroke-miterlimit:4;stroke-dasharray:none;stroke-opacity:1;fill-opacity:1"
     d="m 175061,72955 c 849.98,-807.328 1770.41,-1380.554 2251,-2315 355.89,1307.261 923.59,76.779 1704,965 849.69,685.631 994.62,967.489 1608,1222 634.72,938.905 944.11,-900.539 1993,64 494.95,1.247 1477.76,-752.034 1897,-772 51.08,-602.955 946.81,-1178.963 1672,-1447 526.2,95.613 1053.33,311.828 1672,-160 413.34,-71.169 2570.45,200.445 1319,1286 -1240.38,1980.141 -2805.36,3148.683 -4148,5209 -925.4,256.265 -888.85,2183.999 -1704,1286 -366.65,-72.053 -593.26,-1012.939 -1222,-933 -1056.16,-447.207 -1083.1,-1640.789 -2379,-1768 -1536.45,-840.38 -2903.57,-1437.443 -4213,-2122 -448.28,40.488 -122.58,-325.961 -450,-515 z"
     id="AL"
     inkscape:connector-curvature="0"
     inkscape:label=""><title
       id="title4886">Alagoas</title></path><path
     style="fill:none;stroke:#070707;stroke-width:282.23678589;stroke-miterlimit:4;stroke-dasharray:none;stroke-opacity:1;fill-opacity:1"
     d="m 175061,80093 c 351.31,-980.165 2208.38,445.067 1962,-1222 -483.05,-948.106 851.62,-1031.926 128,-2122 -299.61,-749.977 -1070.66,-740.023 -964,-1479 -160.66,-545.803 -206.26,-1117.74 32,-1350 1539.34,657.736 3536.05,1524.278 4887,2444 308.97,1278.884 1903.95,869.821 2122,1929 1176.24,72.451 -143.1,874.449 -1029,1125 -1774.88,1168.862 -2776.82,4840.733 -4405,4341 -754.48,28.057 -1123.87,-685.008 -1479,-804 -118.95,-575.315 -18.95,-934.789 -546,-1383 39.04,-534.965 -954.48,-697.458 -708,-1479 z"
     id="SE"
     inkscape:connector-curvature="0"
     inkscape:label=""><title
       id="title4888">Sergipe</title></path><path
     style="fill:none;fill-opacity:1;stroke:#070707;stroke-width:282.23678589;stroke-miterlimit:4;stroke-dasharray:none;stroke-opacity:1"
     d="m 127474,104691 c 610.6,-667.25 -67.55,-2099.21 1772.98,-1608 2300.78,-663.93 3285.98,695.02 2536.02,1993 -117.19,509.68 979.9,971.68 -843.95,676 -1807,-274.15 -3593.74,912.57 -3465.05,-1061 z"
     id="DF"
     inkscape:connector-curvature="0"
     inkscape:label=""><title
       id="title4852">Distrito Federal</title></path><path
     style="fill:none;stroke:#070707;stroke-width:282.23678589;stroke-miterlimit:4;stroke-dasharray:none;stroke-opacity:1;fill-opacity:1"
     d="m 160271,69901 c 1021.11,-412.752 1457.22,-1501.305 2218,-1544 229.35,-327.527 1345.42,-980.6 1479,-1768 793.91,-1081.732 -874.55,-1154.247 -353,-2154 -800.84,-1632.974 2565.8,-601.341 3279,-965 1343.78,-1190.121 3260.5,873.075 3409,1543 753.41,250.499 1114.04,1200.688 1543,193 536.76,-508.222 1209.27,-677.954 1640,33 907.41,-214.736 1196.15,-463.824 1479,385 877.6,-253.741 1319.19,-58.302 1961,-900 579.66,133.765 732.73,-622.277 1544,-1029 415.8,-1130.109 2537.33,-602.809 2411,257 -1366.06,127.019 -366.27,1634.695 -1029,1640 -684.21,618.511 -566.7,749.237 161,772 132.07,654.742 518.34,2128.131 1575,1190 1169.76,-177.395 887.7,-1053.609 1512,-1576 498.15,97.926 939.22,-665.579 1350,-514 1062.27,154.582 2666.91,-318.361 3408,-869 -125.84,-878.481 1965.47,-1713.385 2605,-546 1262.27,79.059 526.76,1315.725 707,2444 -665.34,1532.402 -875.8,3348.386 -1608,4308 -1427.82,-463.175 -1614.14,-291.956 -2829,64 -288.25,-635.383 -1599.23,313.998 -1929,676 -437.89,559.288 -414.9,854.525 -1158,836 -708.99,902.346 -1190.53,353.817 -2250,353 -169.64,1065.833 -1088.04,-408.424 -1222,-225 -636.02,-306.105 -1715.24,-1735.692 -2380,-1222 -182.45,-163.788 -778.88,-1146.476 -964,97 -649.12,512.687 -1910.91,2238.042 -2154,643 539.18,-1068.045 -837.66,-153.995 -901,-1061 231.25,-1378.02 -895.09,1311.418 -997,-354 -1005.44,-567.22 -2482.57,-275.571 -2765,-1415 -779.54,-203.771 -1899.9,499.193 -1897,1158 -1311.63,-275.237 -813.46,1944.507 -2315,1383 -753.36,-174.064 -440.87,1801.315 -1350,1639 -808.7,615.925 -1818.24,-12.322 -1094,-643 497.01,-819.145 -979.35,-1055.982 -932,-2058 -938.43,-300.637 -967.87,-884.107 -2154,-771 z"
     id="PE"
     inkscape:connector-curvature="0"
     inkscape:label=""><title
       id="title4884">Pernambuco</title></path><path
     style="fill:none;stroke:#070707;stroke-width:282.23678589;stroke-miterlimit:4;stroke-dasharray:none;stroke-opacity:1;fill-opacity:1"
     d="m 125256,53503 c 1791.27,-1434.339 3686.7,-3228.514 5562,-4052 741.51,-1033.04 962.95,-1774.456 1479,-2411 1233.83,-700.846 889.68,-2398.249 1544,-2798 -5.65,-645.582 933.42,-845.163 900,-1414 459.36,-251.265 283.34,-1281.832 643,-1608 309.97,75.594 -737.26,-946.361 354,-1029 583.71,-387.557 511.05,-1068.801 514,-1479 339.59,-527.584 1211.29,-1458.094 965,-2540 -1199.74,-111.398 1309.28,-664.578 225,-1576 413.2,-571.553 156.77,-1694.083 643,-1575 552.65,-1076.455 173.61,135.682 450,32 -202.73,860.155 900.43,-1414.62 322,-96 -344.29,398.335 442.72,-93.02 -161,482 481.81,-184.689 18.49,366.09 482,-97 -3.53,-579.197 148.04,333.094 32,258 279.09,-571.393 657.24,-863.475 418,-193 277.71,558.284 -294.61,750.388 97,611 137.56,-195.449 256.43,-947.894 450,-1061 -109.05,809.193 -219.73,1225.493 -450,1221 527.31,-345.531 444.76,-783.779 579,-192 91.04,-719.026 190.97,-69.35 96,0 193.13,-314.573 158.77,6.277 225,225 424.13,-683.253 457.2,-400.344 97,385 117.26,789.281 129.77,-271.674 321,-96 137.63,52.922 293.51,-432.273 386,-579 384.03,-282.487 31.98,946.738 -225,708 325.99,186.294 -325,602.411 289,32 254.61,99.098 -568.43,1382.803 -193,932 38.28,444.638 448.33,-424.082 611,-643 771.43,-1019.762 388.96,760.467 611,-739 53.42,-271.553 -16.07,1048.47 161,321 -83.02,-140.35 36.01,-134.141 64,129 677.97,327.025 699.88,-354.788 1126,-258 8.71,147.205 -685.13,513.553 -129,901 458.37,-282.007 165.74,408.11 418,-290 72.41,329.656 254.08,147.704 354,65 266.42,386.44 -879.38,829.478 -418,675 648.57,320.321 -814.95,666.1 128,482 573.61,-389.846 281.2,208.448 515,-418 246.53,658.086 -20.14,103.802 321,643 104.9,-86.952 -224.46,522.899 258,161 72.66,422.811 216.24,1370.466 578,1736 5.63,549.808 38.21,1679.59 1351,836 601.89,-139.808 106.61,234.903 160,225 690.77,688.442 2355.61,-1317.867 1383,-546 536.68,-1102.133 1106.25,175.971 1961,-97 1377.6,359.256 3128.09,1156.456 3248,1415 -752.28,-953.293 1395.86,1279.596 2154,225 545.68,346.603 1418.78,121.784 1897,418 -203.03,731.551 301.43,1305.274 -514,1961 -526.13,575.522 -952.01,667.505 -1286,1383 -1157.38,10.772 -1756.36,121.213 -2187,1415 -185.39,1471.346 -2405.83,2450.977 -868,3665 -1099.39,1377.479 662.57,2696.856 64,4277 -1634.1,991.37 -1659.27,3480.725 -64,4405 196.42,1262.886 -558.74,3001.064 -2347,2636 -754.75,543.173 -1805.46,-1160.022 -2830,-161 -930.64,36.728 -1060.21,743.186 -1736,1737 -1202.02,71.699 -1588.97,1584.122 -2604,1415 -1305.12,774.737 -3176.29,817.588 -3183,2282 -33.46,1093.758 -1049.33,2934.258 -1447,4084 -1252.69,503.013 -197.61,2323.795 -161,3119 763.25,569.749 31.43,1429.247 128,2251 52.35,796.54 -365.26,2760.801 -964,1800 -1385.14,540.385 -2135.03,-875.159 -2187,-1865 -1297.86,-99.11 461.81,-1585.654 -771,-1993 -936.22,131.522 -705.78,-1351.557 -1190,-1479 -1097.5,87.887 -379.87,-784.88 97,-1319 -157.5,-1195.545 143.13,-1247.529 675,-2154 1278.53,83.801 1980.43,-1875.176 643,-2347 -936.25,101.471 -1339.67,689.908 -2026,707 -451.98,-703.526 -1297.73,-1777.199 -1415,-1929 -238.8,-380.077 -808.33,-930.753 -996,-1157 1409.55,-697.977 -1811.85,-607.822 -515,-1287 1138.76,-1094.608 853.96,-2981.176 1351,-4469 -453,-1741.327 20.55,-4086.083 -2283,-4341 -221.11,-1042.976 -1691.22,64.039 -2347,-836 -1201.42,-30.248 -839.81,967.056 -1833,869 z m 13890,-20450 v -32 z m 2476,1286 c -77.54,-133.101 -114.65,-54.378 0,0 z m 1157,-353 c -0.4,-392.272 162.46,602.417 0,0 z m 33,-33 c -60.89,-45.335 -34.33,109.447 0,0 z m -2862,-353 c 88.16,36.649 -37.32,-90.439 0,0 z m 32,0 c -163.71,325.238 8.61,140.866 0,0 z m 4244,1993 c 279.55,21.801 -118.83,213.46 0,0 z m -32,-418 c -87.92,36.418 36.42,-87.922 0,0 z m -5048,-1608 c -15.14,370.92 182.83,512.328 0,0 z m 6463,4245 c -72.78,-34.977 114.47,-8.072 0,0 z m -2026,-3859 c -5.51,-221.766 -631.91,717.646 -579,-128 236.9,242.58 359.15,-567.018 676,128 -130.04,191.208 -8.05,-188.966 -97,0 z m 482,1094 c 34.33,-109.447 60.89,45.335 0,0 z m -5112,-1512 c -16.52,-98.278 98.28,16.52 0,0 z m 5884,2573 c 36.58,-102.478 112.12,-42.896 0,0 z m -4823,-2380 c -87.98,104.261 35.28,79.109 0,0 z m 322,-128 c 56.29,-115.526 98.51,1.399 0,0 z m 3504,1414 c 539.84,-1288.162 422.96,33.967 0,0 z m 3859,4148 c 28.93,-166.197 132.63,-93.963 0,0 z m -4759,-4951 c 145.49,-28.344 122.15,174.453 0,0 z m -2251,-33 c 181.26,-125.62 -36.5,-145.229 0,0 z m 4084,1994 c 31.46,-149.489 59.12,311.567 0,0 z m 836,1125 c -24.52,-241.892 152.01,32.682 0,0 z m -1351,-1736 c 95.52,-191.233 176.7,138.191 0,0 z m -3183,-1286 c 59.3,-211.097 102.97,119.297 0,0 z m 4405,3247 c 347.23,-287.643 161.99,68.808 0,0 z m -32,193 c 124.17,-267.634 199.65,199.593 0,0 z m -2894,-3408 c 247.54,-529.416 116.02,48.281 0,0 z m -3311,-1061 c 181.62,-242.083 50.31,366.575 0,0 z m -97,-354 c 264.11,-254.71 28.34,390.586 0,0 z m 5723,3441 c 86.34,103.725 88.72,-18.662 0,0 z m -96,109 c 26.78,191.485 326.1,-45.378 0,0 z m -579,-1363 c 22.45,-459.412 324.99,32.963 0,0 z m -1029,-1158 c -102.83,196.829 18.85,60.345 0,0 z m -32,97 c -311.83,-298.667 231.53,461.959 0,0 z m 1833,2411 c -81.07,-605.126 334.84,10.339 0,0 z m -4437,-3022 c -745.51,113.063 25.83,-341.63 0,0 z m -643,96 c -427.98,107.884 117.5,-578.054 0,0 z m 4147,1351 c 444.78,-573.495 -269.56,171.408 0,0 z m -578,-997 c 146.1,-10.537 10.54,-146.098 0,0 z m 32,-64 c -59.05,-43.961 -33.29,106.131 0,0 z m -32,0 c 107.11,-34.831 -45.33,-60.185 0,0 z"
     id="MA"
     inkscape:connector-curvature="0"
     inkscape:label=""><title
       id="title4872">Maranhão</title></path><path
     style="fill:none;stroke:#070707;stroke-width:282.23678589;stroke-miterlimit:4;stroke-dasharray:none;stroke-opacity:1;fill-opacity:1"
     d="m 77219,21381 c 622.05,747.882 1080.427,-819.975 1704,-160 524.394,-289.786 -96.568,-1137.607 675,-1158 404.571,-986.037 2189.145,720.24 1994,-739 900.666,-351.808 1223.348,-256.679 2057,-290 427.465,-600.009 828.869,-1623.799 1544,-1222 657.153,-694.401 1009.844,545.449 1833,386 639.616,-126.509 1926.178,-510.398 2797,-64 718.166,341.787 1700.089,413.245 1543,-611 -159.216,-705.287 -1415.265,-1037.472 -771,-1704 476.084,359.25 202.59,-1465.32 1125,-450 1378.586,669.462 2751.201,-467.59 4180,-579 755.312,1075.485 815.855,1840.874 772,2797 51.047,934.485 407.538,1321.755 1511,1254 1100.9,2.272 1552.296,612.756 1929,1254 723.97,-10.549 1016.94,766.05 1736,386 8.26,378.322 879.57,131.141 804,997 1202.32,-424.989 -346.19,1417.133 1125,1768 1551.94,889.654 -142.53,2552.512 1319,3666 87.33,1351.759 1966.18,1707.987 1607,3151 1054.92,-126.263 618.76,1311.447 836,1479 761.17,35.261 -136.41,1471.237 1286,1383 745.92,454.263 743.35,445.013 1222,0 598.91,673.433 1676.78,-800.682 1415,-1801 1286.36,-2072.801 2594.45,-3772.878 4823,-4759 569.65,-1000.528 1798.26,-3649.055 2862,-1768 -488.81,2469.069 1773.15,162.422 2154,1575 1121.91,2005.507 3628.67,2430.759 5627,2540 -961.84,1438.056 1314,1585.207 1993,2058 380.05,-856.127 606.64,-586.175 676,-64 237.91,-1126.21 198.26,134.037 610,-707 327.85,622.515 386.02,774.294 772,353 181.08,722.886 489.37,947.839 322,-32 274.32,518.462 657.73,-195.3 868,129 396.8,131.732 277.51,404.059 611,289 -251.98,1002.813 445.98,-660.98 418,289 103.31,-3.457 104.88,162.816 128,226 542,-1240.252 383.43,1194.836 772,0 315.37,-499.92 168.04,318.156 289,514 216.16,-25.089 254.94,-548.927 451,32 218.88,-313.952 408.38,-744.278 514,-225 -362.98,335.586 -174.42,880.852 386,289 -342.62,618.986 947.94,-863.374 257,65 34.5,278.931 46.91,669.568 386,546 -168.67,-188.627 434.31,-270.942 257,161 457.9,-13.063 65.75,-671.686 740,-868 -99.75,145.987 -294.54,1249.683 -225,1061 771.5,-1499.593 -20.59,886.899 418,-129 -50.54,401.953 513.97,-916.601 321,226 -574.05,931.148 110.19,1798.561 -579,2829 -1043.67,201.953 480.34,831.443 -289,1961 -406.65,515.962 -1150.62,1061.786 -740,1383 256.05,1098.736 -1702.53,1172.273 -868,1929 182.04,269.553 -488.97,538.621 -289,1158 -424.46,734.672 -566.74,1257.248 -1286,1768 -232.63,615.439 -494.47,1238.597 -836,2379 -735.96,585.021 -1092.74,1240.498 -1479,1994 -406.8,543.178 -957.92,1773.267 -1833,1608 -1342.15,1311.564 -3613,2446.341 -4276,3729 910.32,343.63 1756.24,-196.562 2154,804 1638.04,496.047 -1047.4,983.872 161,1865 -785.58,392.547 -22.43,986.717 -965,1318 786.63,1279.158 -899.08,446.984 -1093,1833 -53.25,1370.631 -3309.72,738.778 -2508,2733 -245.05,1278.838 -1564.79,2563.899 161,3376 29.93,2447.676 -1672.54,4429.29 -3280,6045 -1129.13,1102.042 -1068,2441.051 -1768,3794 -10281.84,-590.654 -21007.293,-1557.478 -30996,-2251 -183.377,-1066.181 -1705.735,-485.701 -1544,-1768 -1032.833,-887.588 -2513.583,-892.934 -2572,-2315 -299.845,-967.568 115.201,-2012.931 -900,-2862 -393.902,-1921.58 -1512.422,-3243.633 -2476,-4791 -1778.495,-1549.654 1496.984,-2755.082 1375.605,-4601.216 C 83623.384,51029.394 86802.95,44961.137 88858,39323 c -478.007,-736.665 2688.833,-2096.462 997,-1897 -761.14,684.372 -1565.3,615.415 -2379,611 -1.728,-568.118 -22.207,-845.293 -868,-1029 -968.15,-859.283 -1290.862,-1479.143 -2315,-1254 -475.952,-472.131 -1415.799,-658.738 -2251,-1415 -930.47,303.722 -86.711,-2436.012 -1190,-1125 -1135.206,246.923 -1331.508,-1359.499 -1833,-1736 -1103.746,-462.2 -784.874,-1558.003 -1350,-2219 -966.121,-1869.205 -173.1,-5379.219 -450,-7878 z m 60641,11254 c 73.46,-310.841 240.74,455.102 0,0 z m -4373,-1768 -32,32 z m 3858,1093 c 16.52,98.278 -98.28,-16.52 0,0 z m -3986,-1061 c 71.95,-41.83 -41.83,71.948 0,0 z m 2057,514 c 98.28,-16.52 -16.52,98.278 0,0 z m 1351,643 c -109.02,-134.322 92.02,-21.998 0,0 z m -579,258 c -90.02,5.013 114.23,-55.211 0,0 z m -6624,-1705 c 135.42,-132.541 -28.63,175.099 0,0 z m 6913,1705 c 41.37,-298.605 70.62,110.085 0,0 z m -3086,-1544 c 220.59,-36.506 35.01,204.607 0,0 z m 3022,1254 c -384.12,619.021 -91.35,-342.824 0,0 z"
     id="PA"
     inkscape:connector-curvature="0"
     inkscape:label=""><title
       id="title4866">Pará</title></path><path
     style="fill:none;fill-opacity:1;stroke:#070707;stroke-width:282.23678589;stroke-miterlimit:4;stroke-dasharray:none;stroke-opacity:1"
     d="m 104646,137841 c 1026.63,-1369.64 3517.54,-1690.04 4115,-3602 997.36,-405.87 468.24,-1629.96 1029,-1800 1258.67,-663.5 237.01,-2241.51 1672,-2637 113.08,-1351.49 1016.16,-3142.03 2669,-3408 457.05,-1446.8 1964.26,-1924.21 3151,-2347 1222.56,790.91 3107.52,529.05 4469,739 1173.92,198.01 1162.81,-78.55 900,1094 351.99,1956.7 1473.36,-1255.56 1608,546 633.88,2158.84 -71.42,-1460.79 1415,-546 764.3,-531.68 2341.01,234 2122,-643 581.92,1141.23 1117.84,-333.98 1608,321 0.43,-1224.14 1441.66,117.03 1929,-675 504.38,724.19 1392.29,1193.93 836,2122 73.45,376.02 1583.81,1241.98 514,1672 -285.43,922.11 352.73,2019.45 643,2508 16.06,1177.63 721.44,655.31 1383,611 496.65,-112.2 1641.81,459.48 964,1254 -716.23,346.16 -440.46,1509.46 -450,1833 -475.92,344.66 -186.35,295.43 161,675 -1177.08,796.46 288.63,1641.42 965,1961 248.33,592.28 -750.05,714.69 353,1029 -753.46,1033.96 1032.41,357.72 1126,643 937.9,-370.7 965.23,-153.42 1575,-289 345.69,-155.41 250.12,-505.52 -225,-675 695.44,-96.13 443.37,-986.5 708,-226 621.64,-294.39 416.2,43.65 1093,-160 850.54,178.21 1850.37,-996.81 2958,-1029 881.15,867.86 1079.77,1406.02 2090,836 28.84,13.24 1611.32,324.46 514,932 -323.92,742.09 -2914.23,303.78 -2636,1801 -987.96,472.75 1106.64,1197.27 -129,1189 -413.85,-381.99 -1210.7,358.69 -1061,547 -347.45,53.57 -533.36,89.22 -932,514 -888.34,-413.42 -535.53,990.16 -868,1094 -1021.7,-402.18 -3557.7,-351.69 -3602,836 -502.45,386.24 -716.15,-324.23 -996,96 -2436.7,637.73 -2667.36,2283.93 -4663,3183 -1406.03,473.12 -2210.81,1817.29 -2701,2605 -1265.42,1013.8 331.77,-123.17 -836,128 -190.13,-430.92 -381.72,-1643.22 -868,-836 -145.23,-838.58 -1273.52,793.81 -1221,-321 384.91,-773.8 400.31,-1667.46 -418,-1544 -517.69,219.19 -1527.75,-259.46 -1737,-32 -721.85,372.52 -1778.16,-126.8 -1061,-900 554.57,-679.52 -349.22,-975.24 -482,-1801 -597.17,-392.39 -850.43,-1015.59 -1029,-1382 415.92,-594.53 -506.09,-1545.7 32,-1962 -173.89,-532.05 -555.07,-1732.88 -1575,-1961 -116.49,-1151.17 -1471.98,0.95 -2380,-546 -492.84,164.44 -1222.16,-110.5 -1832,128 -345.44,-1050.95 -2044.18,-1058.21 -3055,-1415 -1088.15,584.9 -2177.12,-732.06 -3312,-514 -38.19,985.86 -1277.78,240.17 -1993,193 -774.91,310.28 -2034.75,-194.71 -2540,161 z m 39098,3826 c -39.28,143.34 -3.14,-144.11 -32,0 m -804,1672 c 68.62,86.26 15.18,23.88 0,0 z m -4727,418 v -32 z m 3827,-1447 h 32 z m 836,-64 c -27.17,-35.8 -13.47,1.25 0,0 z m 643,-804 v -32 z m -1929,1125 v -32 z m 64,1640 v -32 z m 1833,-2444 c 98.28,-16.52 -16.52,98.28 0,0 z m -1962,2444 v -32 z m 225,-321 c 495.76,552.55 -69.29,318.28 -868,289 111.54,-1000.38 1480.18,-917.87 901,-386 -212.84,142.56 14.37,3.42 -33,97 z m 1158,-1512 h 32 z m -933,1319 c -37.56,-90.67 90.67,37.56 0,0 z m -8295,2700 h 32 z m 9839,-4855 c 87.37,-1.25 -96.01,35.8 0,0 z m -193,65 c -99.15,16.35 17.2,-100.45 0,0 z m -3666,1961 h 33 z m 901,322 c 11.38,-101.66 87.84,-22.67 0,0 z m -6560,2540 c 100.45,-17.2 -16.35,99.15 0,0 z m 33,96 c -16.52,-98.28 98.28,16.52 0,0 z m 9678,-4759 c -15.23,11.7 86.72,-5.72 0,0 z m -4084,1865 c -16.52,-98.28 98.28,16.52 0,0 z m 2026,-997 c 47.8,-99.85 124.79,43.77 0,0 z m -2315,1287 c 83.72,-147.05 36.76,122.71 0,0 z m 2958,-1447 c 136.74,-134.94 22.68,127.62 0,0 z m 0,1157 c 274.62,-203.71 211.85,286.27 0,0 z m 482,-1318 c 336.44,186.37 -409.27,34.42 0,0 z"
     id="SP"
     inkscape:connector-curvature="0"
     inkscape:label=""><title
       id="title4840">São Paulo</title></path><path
     style="fill:none;fill-opacity:1;stroke:#070707;stroke-width:282.23678589;stroke-miterlimit:4;stroke-dasharray:none;stroke-opacity:1"
     d="m 143583,140702 c 467.06,-627.73 412.15,-1527.41 1672,-1640 681.96,178.23 2228.06,-635.07 1351,-1286 -553.17,-212.52 -956.2,90.87 -1383,65 -464.55,166.83 -1108.54,-870.67 -1061,-1190 997.77,-167.38 1889.66,-757.34 2701,-643 1041.03,-736.46 2414.6,-913.65 3440,-836 890.02,-703.93 1511.36,3.5 1833,96 787.81,-930.51 3471.59,-1256.97 3730,-2090 -763.64,-175.92 417.5,-1183.07 257,-1575 -84.72,-574.82 773.38,-1335.93 514,-1640 -4.05,-468.4 1092.37,-379.86 1094,-1061 1399.63,-320.57 254.92,1708.59 1254,1736 982.87,527.53 2055.32,220.22 2990,676 709.85,208.21 -963.67,1317.19 -64,1607 1020.95,2148.47 -1130.98,2752.43 -2798,3151 -1002.08,341.52 -2566.95,2400.8 -1286,2347 -197.45,266.33 -909.85,1062.21 -675,1222 -1243.34,-803.27 -5105.27,443.18 -5177,-353 -172.76,-224.57 907.5,-1568.35 -257,-997 -745.34,279.47 -590.17,846.35 -129,418 284.9,-42.63 -558.45,439.18 97,482 439.28,392.03 -651.76,577.07 -1126,450 1011.09,-15.38 -277.82,172.65 -739,418 -732.76,-144.21 -3059,204.58 -1479,-128 -280.54,-179.48 2554.37,337.88 965,-322 -794.01,-579.96 -966.54,-55.88 -1254,-257 -762.04,45.23 -847.47,708.06 -1480,579 114.86,-434.29 -811,122.16 -289,-418 -187.5,-381.33 -521.51,162.96 -739,257 -814.97,14.09 -1400.02,598.79 -1029,1029 690.18,-233.03 -353.09,188.47 289,96 -308.87,614.11 374.7,-439.32 418,129 99.33,398.35 -1019.73,668.01 -1350,64 -62.35,-194.44 -366.08,-124.76 -290,-386 z m 15112,-3922 c -17.2,-100.45 99.15,16.35 0,0 z m -64,32 c 73.04,-145.34 71.79,181.73 0,0 z m -7042,3054 v -32 z m -1511,97 h 32 z m -2829,-161 v 32 z m -2701,418 c 20.6,50.75 20.6,50.75 0,0 z m 3858,-772 c 5.77,-118.02 42.59,156.99 0,0 z m -482,0 c -43.96,-59.05 106.13,-33.29 0,0 z m 3280,418 c -100.45,17.2 16.35,-99.15 0,0 z m -6688,354 v 32 z m 96,643 c -30.49,-84.97 -133.15,40.65 0,0 z m -96,-289 h 32 z m 546,450 v -32 z m -128,-900 c 71.95,-41.83 -41.83,71.95 0,0 z m 160,-161 c 121.59,108.48 -14.8,-3.85 0,0 z m 2894,-450 h 32 z m -3215,482 c 149.57,-63.89 -71.23,137.39 0,0 z m 5048,96 h 32 z m -2701,-193 c 0,29.77 0,29.77 0,0 z m 3923,0 c -16.52,-98.28 98.28,16.52 0,0 z m -3055,-64 v -32 z m 3537,0 h 32 z m -6463,1608 c 20.6,-50.75 20.6,-50.75 0,0 z m -450,-933 c 20.6,-50.75 20.6,-50.75 0,0 z m 3408,-707 v 32 z m 161,-129 c -16.52,-98.28 98.28,16.52 0,0 z m 3344,225 c 50.75,-20.6 50.75,-20.6 0,0 z m -6881,708 c 0,-113.78 0,113.78 0,0 z m 354,64 c 55.95,95.5 -289.51,198.39 0,0 z m -129,-643 c 23.39,-98.14 100.5,-40.71 0,0 z m 5209,0 v -32 z m -5048,611 c -16.52,-98.28 98.28,16.52 0,0 z m 6752,-643 c 50.75,20.6 50.75,20.6 0,0 z m -3601,-386 h 32 z m -1029,289 c -36.42,-87.92 87.92,36.42 0,0 z m 4405,129 c 98.28,-16.52 -16.52,98.28 0,0 z m -6848,32 c 62.98,-76.28 3.45,-16.01 0,0 z m 7266,-1479 c -16.01,-187.72 56.7,-71.12 0,0 z m -7491,1897 c 134.14,-122.46 -35.19,198.46 0,0 z m 3022,-739 c 249.46,-186.79 92.97,115.88 0,0 z m 547,0 c 101.07,-266.74 139.06,50.34 0,0 z m 3311,-708 c -38.98,125.59 91.79,-5.9 0,0 z m -4791,1672 c -353.88,-45.05 -846.36,53.06 -192,-450 221.75,-93.76 849.05,-1.43 836,354 -257.93,-215.23 -280.19,142.48 -644,96 z"
     id="RJ"
     inkscape:connector-curvature="0"
     inkscape:label=""><title
       id="title4842">Rio de Janeiro</title></path><path
     style="fill:none;stroke:#070707;stroke-width:282.23678589;stroke-miterlimit:4;stroke-dasharray:none;stroke-opacity:1;fill-opacity:1"
     d="m 157827,128806 c 214.31,-548.21 471.57,-1178.61 97,-2058 424.35,-1124.01 2788.26,-95.22 2572,-1833 984.95,-386.27 364.27,-1583.03 1286,-2058 491.31,-542.2 755.5,-1365.46 386,-1993 -610.57,-457.01 -280.5,-1235.71 -1286,-1383 27.04,-404.69 2536.82,160.84 964,-1029 59,-279.01 -168.13,-1341.54 -546,-1189 -52.21,-1048.82 777.27,-1632.57 1768,-1222 -1201.19,-1596.69 30.17,-493.39 675,-804 961.93,-1264.59 3268.07,918.6 4534,1768 -1019.41,2378.25 995.28,5849.32 -1833,7235 -578.77,841.68 -794.66,2232.79 -1093,2411 99.82,292.86 -905.41,1889.29 -997,1672 -360.77,848.68 -596.13,577.36 -1093,836 -476.14,231.12 -765.41,3098.67 -1736,1833 -946.47,268.61 -2297.95,-217.47 -3023,-579 84,-574.45 253.58,-1504.59 -675,-1607 z m 7170,-1190 h 32 z m -64,450 v -32 z m -64,-96 h -32 z m -547,321 c -303.16,17.61 -110.71,190.92 0,0 z m 579,-225 v -32 z m 386,-1157 h 32 z"
     id="ES"
     inkscape:connector-curvature="0"
     inkscape:label=""><title
       id="title4848">Espírito Santo</title></path><path
     style="fill:none;fill-opacity:1;stroke:#070707;stroke-width:282.23678589;stroke-miterlimit:4;stroke-dasharray:none;stroke-opacity:1"
     d="m 101205,160059 c 189.11,-641.64 380.3,-583.88 740,-1351 -205.86,-605.5 -408.51,-978.27 -225,-1640 219.5,-199.61 -213.39,-1209.31 707,-1382 1000.71,-114.5 1471.77,-132.48 2283,578 1822.49,-573.7 3054.88,408.25 4694,451 657.6,958.96 3132.69,197.34 3280,932 1789.65,-141.84 -309.97,-1516.45 1222,-1929 953.64,-350.91 1089.55,68.13 1897,-161 270.68,-419.31 969.43,-1281.26 932,-997 766.94,-383.08 925.93,1023.76 1415,-64 528.85,306.33 703.17,-158.46 1350,64 642.04,-250.02 1219.64,902.67 1833,836 684.08,106.18 1178.2,-669.31 2058,-996 510.13,221.18 3003.79,-1043.39 2765,771 904.93,246.12 -1527.7,2995.79 -96,3055 -609.63,887.16 189.98,935.47 0,1704 696.54,-254.52 636.9,474.72 -129,386 344.37,729.39 547.88,623.17 -161,1286 518.02,795.42 -119.08,675.32 290,1801 -81.04,823.37 -486.18,1988.02 -772,3118 -751.85,1173 -4036.89,2483.75 -4662,4020 -373.68,-235.38 -1535.27,-916.61 -1704,-97 326.36,636.4 -779.69,-757.41 -65,-354 30.05,-276.98 152,-109.09 579,-450 185.74,-455.65 110.95,-481.64 193,-1189 -306.61,-769.56 375.71,-597.97 740,-1351 791.18,353.66 -6.83,-1201.78 -258,-546 -87,-481.84 -1079.15,-41.15 -1511,-193 -162.24,33.55 -818.62,-119.7 -1254,-129 -1274.59,35.37 -1552.32,-1420.73 -2251,-1736 -64.33,-585.05 -805.62,-864.38 -1221,-1351 -937.01,-440.83 -1171.53,-1057.17 -2026,-1157 -139.46,-526.55 -753.83,-266.82 -1286,-225 -24.56,-180.37 -538.75,-234.41 -643,-611 198.31,-42.56 -912.88,-730.46 -1126,-322 -94.42,-508.93 -642.11,-28.26 -771,-193 -399.02,-618.27 -1574.92,295.69 -1930,-418 -517.86,-321.91 -970.57,345.55 -964,-321 -205.67,-495.56 -258.52,220.3 -707,32 -259.75,174.6 -1009.32,606.28 -740,-129 -839.56,-235.52 -707.3,540.37 -1479,354 -31.69,89.84 -696.23,-217.74 -997,-96 z m 24919,1607 v -32 z m 0,997 c 420.47,-547.4 -196.55,-1329.08 675,-1415 690.55,-222.88 -469.91,1441.15 -289,1833 -641.31,448.05 -290.18,-53.31 -386,-418 z m 32,-1093 c -31.25,-24.64 9.18,9.15 0,0 z"
     id="SC"
     inkscape:connector-curvature="0"
     inkscape:label=""><title
       id="title4836">Santa Catarina</title></path><path
     style="fill:none;stroke:#070707;stroke-width:282.23678589;stroke-miterlimit:4;stroke-dasharray:none;stroke-opacity:1;fill-opacity:1"
     d="m 172553,61123 c 1152.02,-477.858 65.39,-1626.635 1126,-2508 -814.84,-10.066 598.79,-568.003 386,32 916.32,769.58 1919.66,372.684 2379,97 846.67,-521.52 867.05,-1400.073 2315,-1351 809.05,-1065.205 2066.92,-134.006 804,675 -611.98,510.962 -886.33,1279.645 -933,2090 1167.53,-314.556 1145.28,1090.229 2347,0 223.79,633.214 1460.08,8.33 1158,1254 1073.79,-41.152 1024.44,-1157.417 1125,-1800 948.74,453.704 -943.31,-1252.306 354,-1158 681.05,-977.872 733.01,981.701 1736,225 796.24,795.396 2254.71,47.23 2958,386 947.67,475.305 1410.1,200.115 2251,32 -9.44,896.264 582.07,2976.061 579,2315 265.01,659.718 475.24,3786.19 -675,2476 -1038.93,-943.408 -2820.52,-58.344 -2605,868 -1181.47,388.71 -2309.43,856.659 -3408,740 -328.75,-77.62 -893.49,248.83 -1157,579 -918.79,-80.888 -420.46,1390.975 -1480,1382 -1110.05,1041.755 -1732.16,-258.049 -1768,-1061 -625.25,-90.103 -1019.39,-160.806 -193,-707 441.62,-186.184 107.94,-704.279 322,-1351 1903.56,-454.202 -623.17,-1997.364 -1351,-996 -429.8,439.749 -1467.73,1199.407 -1575,1382 -721.59,93.941 -1191.94,1109.209 -1897,707 -889.77,571.869 -456.45,-1006.733 -1319,-353 -936.49,581.5 -1354.22,-694.931 -900,-1254 842.82,-400.269 277.7,-1330.702 -161,-1479 287.71,-788.933 -532.42,-589.808 -418,-1222 z"
     id="PB"
     inkscape:connector-curvature="0"
     inkscape:label=""><title
       id="title4882">Paraíba</title></path><g
     id="Regiões geoeconômicas"
     style="fill:#999999;fill-opacity:1" /></svg>